<svg xmlns="http://www.w3.org/2000/svg" width="134" height="115" fill="none"><rect width="134" height="115" fill="#C11" rx="39"/><g clip-path="url(#a)"><path fill="#000" d="M81 7a50.054 50.054 0 0 0-50 50c2.5 66.25 97.5 66.221 100 0A50.055 50.055 0 0 0 81 7Zm0 91.667A41.713 41.713 0 0 1 39.333 57c2.084-55.2 81.25-55.188 83.334 0A41.71 41.71 0 0 1 81 98.667Zm0-75A33.371 33.371 0 0 0 47.667 57c1.566 44.117 65.108 44.104 66.666 0A33.371 33.371 0 0 0 81 23.667Zm-3.475 37.858a17.462 17.462 0 0 0-.6-3.387 17.69 17.69 0 0 0-1.25-3.184A14.975 14.975 0 0 0 81 51.388a14.975 14.975 0 0 0 5.313 3.566 17.69 17.69 0 0 0-1.25 3.184 17.462 17.462 0 0 0-.6 3.387 17.125 17.125 0 0 0-6.938 0Zm24.808-17.55-8.041 3.217a6.667 6.667 0 0 1-9.125-6.18V32.35a25.068 25.068 0 0 1 17.166 11.625Zm-25.5-11.625v8.663a6.666 6.666 0 0 1-9.125 6.179l-8.041-3.217A25.067 25.067 0 0 1 76.833 32.35ZM56 57c0-1.777.188-3.55.563-5.288l7.083 2.838a8.868 8.868 0 0 1 3.82 13.538l-4.583 6.12A24.908 24.908 0 0 1 56 57Zm13.546 22.217 4.787-6.384a8.572 8.572 0 0 1 13.334 0l4.787 6.38a25.18 25.18 0 0 1-22.908.004Zm29.583-5-2.733-3.638-1.842-2.458a8.866 8.866 0 0 1 3.808-13.563l7.084-2.837a25.114 25.114 0 0 1-6.33 22.487l.013.009Z"/></g><path fill="#000" d="M27 95h37v4H27zM17 103h64v4H17zM15 87h37v4H15zM11 95h8v4h-8zM3 87h8v4H3zM25.667 35.333h6.666V37h-6.666v-1.667Zm13.333-15v32.5A4.171 4.171 0 0 1 34.833 57H13.167A4.171 4.171 0 0 1 9 52.833v-32.5h8.417A4.174 4.174 0 0 1 21.5 17h5a4.174 4.174 0 0 1 4.083 3.333H39ZM37.333 22H29v-.833c0-1.379-1.122-2.5-2.5-2.5h-5a2.503 2.503 0 0 0-2.5 2.5V22h-8.333v30.833c0 1.379 1.121 2.5 2.5 2.5h21.666c1.379 0 2.5-1.121 2.5-2.5V22ZM18.64 35.253c-.093.094-.3.092-.402-.01l-2.963-2.868-1.158 1.198 2.953 2.86c.368.367.857.569 1.375.569s1.007-.204 1.368-.565l5.604-5.509-1.169-1.188-5.608 5.513ZM25.667 47h6.666v-1.667h-6.666V47Zm-7.027-1.747c-.093.095-.3.092-.402-.01l-2.963-2.868-1.158 1.198 2.953 2.86c.368.367.857.569 1.375.569s1.007-.204 1.368-.565l5.604-5.509-1.169-1.188-5.608 5.513Z"/><defs><clipPath id="a"><path fill="#fff" d="M31 7h100v100H31z"/></clipPath></defs></svg>