<svg xmlns="http://www.w3.org/2000/svg" width="364" height="148" fill="none"><g clip-path="url(#a)"><path fill="#C11" d="M60.167 68.833h20.666V74H60.167v-5.167Zm41.333-46.5v100.75c0 7.12-5.792 12.917-12.917 12.917H21.417C14.292 136 8.5 130.203 8.5 123.083V22.333h26.092C35.79 16.443 41.014 12 47.25 12h15.5c6.236 0 11.46 4.443 12.658 10.333H101.5ZM96.333 27.5H70.5v-2.583c0-4.273-3.477-7.75-7.75-7.75h-15.5c-4.273 0-7.75 3.477-7.75 7.75V27.5H13.667v95.583c0 4.273 3.477 7.75 7.75 7.75h67.166c4.273 0 7.75-3.477 7.75-7.75V27.5ZM38.384 68.585c-.29.29-.93.285-1.245-.03l-9.187-8.893-3.59 3.715 9.155 8.866a6.004 6.004 0 0 0 4.262 1.762c1.607 0 3.121-.63 4.242-1.751l17.37-17.076-3.621-3.684-17.386 17.091ZM60.167 105h20.666v-5.167H60.167V105Zm-21.783-5.415c-.29.295-.93.285-1.245-.03l-9.187-8.893-3.59 3.715 9.155 8.866a6.003 6.003 0 0 0 4.262 1.762c1.607 0 3.121-.63 4.242-1.751l17.37-17.076-3.621-3.684-17.386 17.091Z"/><g clip-path="url(#b)"><path fill="#000" d="M311 76a30.034 30.034 0 0 0-30 30c1.5 39.75 58.5 39.732 60 0a30.035 30.035 0 0 0-30-30Zm0 55a25.03 25.03 0 0 1-17.67-7.33A25.03 25.03 0 0 1 286 106c1.25-33.12 48.75-33.112 50 0a25.03 25.03 0 0 1-7.33 17.67A25.03 25.03 0 0 1 311 131Zm0-45a20.024 20.024 0 0 0-20 20c.94 26.47 39.065 26.463 40 0a20.023 20.023 0 0 0-20-20Zm-2.085 22.715a10.477 10.477 0 0 0-.36-2.033 10.655 10.655 0 0 0-.75-1.91 8.973 8.973 0 0 0 3.195-2.14 8.977 8.977 0 0 0 3.187 2.14 10.402 10.402 0 0 0-1.109 3.943 10.277 10.277 0 0 0-4.163 0Zm14.885-10.53-4.825 1.93a4 4 0 0 1-5.475-3.707V91.21a15.044 15.044 0 0 1 10.3 6.975Zm-15.3-6.975v5.198a4.006 4.006 0 0 1-1.757 3.301 4.01 4.01 0 0 1-3.718.406l-4.825-1.93a15.047 15.047 0 0 1 10.3-6.975ZM296 106c0-1.066.113-2.13.338-3.173l4.25 1.703a5.322 5.322 0 0 1 2.292 8.123l-2.75 3.672A14.94 14.94 0 0 1 296 106Zm8.128 13.33L307 115.5a5.123 5.123 0 0 1 1.784-1.408A5.135 5.135 0 0 1 315 115.5l2.872 3.827a15.089 15.089 0 0 1-6.872 1.655 15.092 15.092 0 0 1-6.872-1.652Zm17.749-3-1.64-2.183-1.104-1.475a5.307 5.307 0 0 1-.869-4.633 5.317 5.317 0 0 1 3.153-3.504l4.251-1.703a15.07 15.07 0 0 1-3.798 13.493l.007.005Z"/></g><path fill="#000" d="M269 130h30v2h-30zM255 134h52v2h-52zM274 126h20v2h-20zM259 130h5v2h-5zM264 126h5v2h-5zM122.068 59h-17.454l7.727-46.546h16.932c4.727 0 8.666.963 11.818 2.887 3.167 1.909 5.401 4.651 6.704 8.227 1.319 3.56 1.569 7.803.75 12.727-.787 4.758-2.371 8.834-4.75 12.228-2.363 3.394-5.393 5.992-9.09 7.795-3.697 1.788-7.91 2.682-12.637 2.682Zm-4.636-9.59h5.341c2.606 0 4.909-.47 6.909-1.41 2.015-.955 3.682-2.477 5-4.568 1.318-2.106 2.257-4.871 2.818-8.296.545-3.272.523-5.856-.068-7.75-.576-1.909-1.697-3.272-3.364-4.09-1.651-.834-3.81-1.25-6.477-1.25H122l-4.568 27.363ZM151.364 59l5.818-34.91h10.795l-1.068 6.364h.364c1.015-2.303 2.341-4.015 3.977-5.136 1.636-1.136 3.409-1.704 5.318-1.704.515 0 1.03.037 1.546.113.53.06 1.03.152 1.5.273l-1.637 9.682c-.515-.197-1.189-.341-2.022-.432a18.142 18.142 0 0 0-2.273-.16 7.863 7.863 0 0 0-3.682.887 8.31 8.31 0 0 0-2.864 2.432c-.772 1.03-1.28 2.242-1.522 3.636L162.477 59h-11.113Zm26.937 0 5.818-34.91h11.114L189.415 59h-11.114Zm12.159-39c-1.576 0-2.856-.523-3.841-1.568-.985-1.046-1.371-2.296-1.159-3.75.212-1.47.955-2.72 2.228-3.75 1.272-1.03 2.689-1.546 4.25-1.546 1.575 0 2.84.516 3.795 1.546.97 1.03 1.348 2.28 1.136 3.75-.181 1.454-.909 2.704-2.181 3.75C193.43 19.477 192.021 20 190.46 20Zm45.71 4.09L218.375 59h-12.727l-6.137-34.91h11.296l2.454 24.046h.364l10.432-24.045h12.113ZM234.614 59l5.818-34.91h11.113L245.727 59h-11.113Zm12.159-39c-1.576 0-2.856-.523-3.841-1.568-.985-1.046-1.371-2.296-1.159-3.75.212-1.47.954-2.72 2.227-3.75 1.273-1.03 2.689-1.546 4.25-1.546 1.576 0 2.841.516 3.795 1.546.97 1.03 1.349 2.28 1.137 3.75-.182 1.454-.909 2.704-2.182 3.75-1.258 1.045-2.667 1.568-4.227 1.568Zm20.528 19.09L263.983 59h-11.114l5.819-34.91h10.568l-1.046 6.41h.387a12.047 12.047 0 0 1 4.75-5.023c2.075-1.227 4.409-1.84 7-1.84 2.439 0 4.477.545 6.113 1.636 1.637 1.09 2.796 2.62 3.478 4.59.681 1.955.795 4.25.34 6.887L286.551 59h-11.113l3.34-20.068c.334-1.924.099-3.432-.704-4.523-.788-1.106-2.076-1.659-3.864-1.659-1.166 0-2.235.258-3.204.773-.955.5-1.758 1.22-2.409 2.159-.637.94-1.069 2.076-1.296 3.409Zm40.154 33.728c-3.334 0-6.107-.462-8.319-1.386-2.212-.924-3.863-2.19-4.954-3.796-1.091-1.606-1.614-3.424-1.568-5.454l10.636-.591a3.59 3.59 0 0 0 .795 1.886c.44.53 1.069.932 1.887 1.205.818.288 1.833.432 3.045.432 1.864 0 3.485-.455 4.864-1.364 1.379-.91 2.227-2.477 2.545-4.705l1.023-6.136h-.386c-.606 1.076-1.425 2.038-2.455 2.886-1.03.849-2.25 1.516-3.659 2-1.409.485-2.97.728-4.682.728-2.56 0-4.795-.591-6.704-1.773-1.909-1.197-3.288-3.045-4.137-5.545-.848-2.516-.947-5.75-.295-9.705.682-4.076 1.894-7.432 3.636-10.068 1.743-2.652 3.773-4.614 6.091-5.886 2.334-1.273 4.72-1.91 7.159-1.91 1.834 0 3.349.319 4.546.955 1.197.621 2.136 1.424 2.818 2.409.682.985 1.167 2.008 1.454 3.068h.319l.977-5.977h11.068l-5.818 35.045c-.47 2.97-1.614 5.47-3.432 7.5-1.818 2.03-4.144 3.569-6.977 4.614-2.834 1.046-5.993 1.568-9.477 1.568Zm3.909-22.386c1.348 0 2.568-.356 3.659-1.068 1.091-.712 2.007-1.735 2.75-3.069.742-1.333 1.265-2.931 1.568-4.795.303-1.894.303-3.523 0-4.886-.288-1.38-.849-2.44-1.682-3.182-.833-.743-1.932-1.114-3.295-1.114-1.379 0-2.606.379-3.682 1.137-1.061.757-1.955 1.825-2.682 3.204-.712 1.364-1.212 2.977-1.5 4.841-.303 1.864-.326 3.462-.068 4.795.273 1.334.818 2.356 1.636 3.069.834.712 1.932 1.068 3.296 1.068Z"/><path fill="#C11" d="m109.273 98.59 1.545-9.136h39.341l-1.545 9.137H134.5L128.318 136h-11.091l6.182-37.41h-14.136Zm49.818 38.069c-3.652 0-6.682-.72-9.091-2.159-2.394-1.455-4.076-3.523-5.045-6.205-.97-2.697-1.144-5.901-.523-9.613.606-3.606 1.841-6.758 3.704-9.455 1.879-2.712 4.243-4.818 7.091-6.318 2.849-1.515 6.023-2.273 9.523-2.273 2.485 0 4.689.387 6.614 1.159 1.924.773 3.515 1.925 4.772 3.455 1.258 1.515 2.114 3.379 2.569 5.591.454 2.212.439 4.75-.046 7.614l-.432 2.772h-30.318l1.023-6.454h20c.182-1.182.083-2.235-.296-3.159a4.415 4.415 0 0 0-1.841-2.159c-.833-.531-1.856-.796-3.068-.796a7.205 7.205 0 0 0-3.454.864 8.312 8.312 0 0 0-2.705 2.272 7.45 7.45 0 0 0-1.454 3.228l-1.205 6.613c-.242 1.47-.174 2.728.205 3.773.378 1.046 1.03 1.849 1.954 2.409.924.546 2.114.818 3.568.818.97 0 1.879-.128 2.728-.386a7.097 7.097 0 0 0 2.272-1.205 6.515 6.515 0 0 0 1.659-1.977l10.137.296a15.797 15.797 0 0 1-3.796 5.977c-1.712 1.682-3.803 2.992-6.272 3.932-2.455.924-5.212 1.386-8.273 1.386Zm56.767-24.909-10.023.273c.015-.743-.151-1.394-.5-1.955a3.52 3.52 0 0 0-1.477-1.341c-.636-.318-1.394-.477-2.273-.477-1.424 0-2.704.318-3.841.955-1.121.636-1.75 1.462-1.886 2.477-.106.545.045 1.023.454 1.432.41.394 1.319.742 2.728 1.045l6.545 1.273c3.364.666 5.803 1.826 7.318 3.477 1.531 1.636 2.076 3.803 1.637 6.5-.394 2.303-1.409 4.296-3.046 5.977-1.621 1.682-3.689 2.985-6.204 3.909-2.5.91-5.265 1.364-8.296 1.364-5.121 0-8.985-1.03-11.591-3.091-2.591-2.076-3.803-4.826-3.636-8.25l10.818-.273c.046 1.288.477 2.258 1.296 2.91.833.636 1.962.969 3.386 1 1.561.03 2.909-.296 4.045-.978 1.137-.682 1.773-1.522 1.91-2.522.091-.652-.129-1.16-.66-1.523-.515-.364-1.477-.69-2.886-.977l-5.909-1.16c-3.394-.651-5.848-1.878-7.364-3.681-1.5-1.819-2.015-4.137-1.545-6.955.394-2.242 1.318-4.144 2.773-5.704 1.469-1.576 3.386-2.773 5.75-3.591 2.378-.819 5.091-1.228 8.136-1.228 4.879 0 8.561.993 11.045 2.978 2.5 1.969 3.599 4.681 3.296 8.136Zm27.903-10.659-1.386 8.182h-22.023l1.387-8.182h22.022Zm-16.045-8.364h11.114l-5.364 32.296c-.106.682-.091 1.235.045 1.659.152.409.425.704.819.886.409.167.909.25 1.5.25.409 0 .863-.045 1.363-.136l1.137-.205.363 8.023a38.76 38.76 0 0 1-2.386.568c-.985.227-2.137.371-3.455.432-2.666.106-4.871-.205-6.613-.932-1.728-.742-2.947-1.894-3.659-3.454-.697-1.561-.834-3.516-.41-5.864l5.546-33.523Z"/></g><defs><clipPath id="a"><path fill="#fff" d="M0 0h364v148H0z"/></clipPath><clipPath id="b"><path fill="#fff" d="M281 76h60v60h-60z"/></clipPath></defs></svg>